<svg id="图层_1" data-name="图层 1" xmlns="http://www.w3.org/2000/svg" viewBox="0 0 502.69 138.53"><defs></defs><path class="cls-1" d="M404.78,49.49h-43.3V42.44h49.85a.48.48,0,0,1,.34.82L405.91,49A1.61,1.61,0,0,1,404.78,49.49Zm1.13,24.68,5.76-5.77a.48.48,0,0,0-.34-.81H361.48v7h43.3A1.64,1.64,0,0,0,405.91,74.17ZM198.52,42.3a24.2,24.2,0,0,1,47.87,0h6.84a31,31,0,0,0-61.56,0Zm47.87,7.18a24.2,24.2,0,0,1-47.87,0h-6.85a31,31,0,0,0,61.56,0Zm86,11.35V17.3h-7.05V53a1.62,1.62,0,0,0,.36,1l5.84,7.15A.48.48,0,0,0,332.43,60.83ZM285.56,17.18h-8V74.57h7.05V27.2l38.68,47.4h9.11ZM464,36,445.64,17.68a1.57,1.57,0,0,0-1.12-.47h-8.16A.48.48,0,0,0,436,18L459,41Zm38.73-18.79h-10L469,41h0l-5,5h0L435.3,74.63h10L469,51l23.68,23.68h10L473.93,46ZM196.42,123V93.8h-4.18V123Zm20.37,0V105.45h.08l6.4,17.54h3.93V93.8H223v17.59h-.08L216.63,93.8h-4V123Zm33.41,0V97.74H255V93.8H241.18v3.94H246V123Zm31.43,0v-4.18h-8.28v-8.57h7.22v-3.93h-7.22V97.74h8.28V93.8H269.17V123Zm27.47,0v-4.18h-8.28v-25h-4.18V123Zm27.46,0v-4.18h-8.28v-25H324.1V123Zm19.3,0V93.8h-4.18V123ZM372,116.1a7.39,7.39,0,0,0,.62,3.16,6.17,6.17,0,0,0,1.64,2.17,6.54,6.54,0,0,0,2.23,1.35,7.47,7.47,0,0,0,2.52.46,7.38,7.38,0,0,0,2.52-.46,7.06,7.06,0,0,0,2.28-1.35,6.59,6.59,0,0,0,1.6-2.17,7.39,7.39,0,0,0,.61-3.16v-9.18h-7.5v3.69h3.32v5.49a2.8,2.8,0,0,1-.84,2.24,3.14,3.14,0,0,1-4,0,2.8,2.8,0,0,1-.84-2.24V100.69a2.77,2.77,0,0,1,.84-2.23,3.11,3.11,0,0,1,4,0,2.77,2.77,0,0,1,.84,2.23v1.48H386v-1.48a7.44,7.44,0,0,0-.61-3.11,6.88,6.88,0,0,0-1.6-2.26A7.52,7.52,0,0,0,381.5,94a7.36,7.36,0,0,0-2.52-.45,7.45,7.45,0,0,0-2.52.45,6.94,6.94,0,0,0-2.23,1.31,6.43,6.43,0,0,0-1.64,2.26,7.44,7.44,0,0,0-.62,3.11ZM414.44,123v-4.18h-8.28v-8.57h7.21v-3.93h-7.21V97.74h8.28V93.8H402V123Zm19,0V105.45h.08L439.93,123h3.94V93.8h-4.18v17.59h-.08L433.29,93.8h-4V123ZM469,114.67v1.43a3.72,3.72,0,0,1-.25,1.44,2.21,2.21,0,0,1-1.5,1.37,2.83,2.83,0,0,1-.88.14,2.18,2.18,0,0,1-2-.86,3.92,3.92,0,0,1-.55-2.13V101.14a5.22,5.22,0,0,1,.51-2.44,2.12,2.12,0,0,1,2.07-1,2.26,2.26,0,0,1,1.89.9,3.41,3.41,0,0,1,.7,2.13v1.4h4.18v-1.64a7.39,7.39,0,0,0-.52-2.81,6.73,6.73,0,0,0-1.41-2.23,6.33,6.33,0,0,0-4.8-1.93,7.22,7.22,0,0,0-2.76.51,6.25,6.25,0,0,0-2.15,1.42,6.17,6.17,0,0,0-1.4,2.13,7.07,7.07,0,0,0-.49,2.66v16.07a7.52,7.52,0,0,0,.63,3.3,6.55,6.55,0,0,0,1.62,2.11,5.75,5.75,0,0,0,2.22,1.15,9.27,9.27,0,0,0,2.42.33,6.2,6.2,0,0,0,2.6-.56,6.85,6.85,0,0,0,2.11-1.49A7.08,7.08,0,0,0,472.7,119a6.34,6.34,0,0,0,.52-2.56v-1.8ZM501.38,123v-4.18H493.1v-8.57h7.21v-3.93H493.1V97.74h8.28V93.8H488.92V123ZM411.33,17.22H361.48v7.05h43.3a1.61,1.61,0,0,0,1.13-.47L411.66,18A.47.47,0,0,0,411.33,17.22Z"></path><path class="cls-1" d="M74.48,124.79l-10.9,10.89a9.68,9.68,0,0,1-6.87,2.85H1.39a1.39,1.39,0,0,1-1-2.37l8-8a4.17,4.17,0,0,1,3-1.22H54.77a2.78,2.78,0,0,0,2-.81l9.52-9.53Zm89.77,13.62-55.56.11a9.73,9.73,0,0,1-6.89-2.84L37.35,71.23a2.79,2.79,0,0,1,0-3.93L74.48,30.18,56.74,12.43a2.78,2.78,0,0,0-2-.81H11.39a4.17,4.17,0,0,1-3-1.22l-8-8A1.39,1.39,0,0,1,1.39,0H56.71a9.71,9.71,0,0,1,6.87,2.84L128,67.3a2.79,2.79,0,0,1,0,3.93L90.91,108.35l17.75,17.75a2.76,2.76,0,0,0,2,.81H156l9.22,9.12A1.39,1.39,0,0,1,164.25,138.41ZM76.89,44.2,52.81,68.28a1.38,1.38,0,0,0,0,2L76.89,94.33ZM88.51,94.33l24.08-24.08a1.4,1.4,0,0,0,0-2L88.51,44.2ZM164.27,0H108.68a9.71,9.71,0,0,0-6.87,2.84L90.92,13.74,99.13,22l9.53-9.53a2.76,2.76,0,0,1,2-.81h43.65a4.19,4.19,0,0,0,2.95-1.22l8-8A1.39,1.39,0,0,0,164.27,0Z"></path></svg>